<svg width="32" height="32" viewBox="0 0 32 32" fill="none" xmlns="http://www.w3.org/2000/svg">
<path d="M16.0002 3.00001C14.3455 3.0085 12.7621 3.67285 11.5983 4.84877C10.4345 6.02472 9.78464 7.61405 9.79315 9.26878V12.776H7.62071C7.27762 12.776 7.00001 13.0537 7.00001 13.3967V25.8108C6.9988 26.0472 7.13094 26.2629 7.34189 26.3696L13.8592 29.5036C15.2206 30.1655 16.8112 30.1655 18.1724 29.5036L24.6581 26.3696C24.8691 26.263 25.0012 26.0472 25 25.8108V13.3967C25 13.2319 24.9345 13.0743 24.8181 12.9579C24.7018 12.8415 24.5442 12.776 24.3793 12.776H22.2068V9.26877C22.2153 7.61398 21.5655 6.02467 20.4017 4.84876C19.2379 3.67281 17.6546 3.00847 15.9997 3L16.0002 3.00001ZM11.0347 9.26878C11.0347 7.49519 11.9815 5.85617 13.5175 4.96888C15.0534 4.08158 16.9471 4.08146 18.483 4.96888C20.019 5.85629 20.9658 7.49531 20.9658 9.26878V12.776H11.0347V9.26878ZM23.759 25.407L17.6138 28.3869C16.5954 28.8815 15.4049 28.8815 14.3867 28.3869L8.24153 25.4385V14.0173H23.759V25.407Z" fill="#43464E"/>
<path d="M16.0202 24.1298C16.2221 24.1298 16.4151 24.0497 16.5576 23.9072C16.7001 23.7647 16.7803 23.5717 16.7803 23.3698V20.3298C16.7803 19.9097 16.4403 19.5698 16.0203 19.5698C15.6002 19.5698 15.2603 19.9097 15.2603 20.3298V23.3698C15.2603 23.5717 15.3404 23.7647 15.4829 23.9072C15.6254 24.0497 15.8184 24.1298 16.0203 24.1298H16.0202Z" fill="#43464E"/>
</svg>
